#!OML:ASF E:/inclinewalkrobotboard/Project1/Captureday1/Session1/subject1.ASF
:FULLY-SPECIFIED
:DEGREES
63
root 0 0 0 44.98776531000623 -47.10178129230802 -18.497394718845886
lowerback -6.495290540266524 3.600167080346975 -0.48339520587632406
upperback -13.436910917059503 4.307085907009718 -0.07700421400531754
thorax -11.034367437867042 2.110251249888338 0.6833992718425608
lowerneck -11.435366757178372 6.752559269865561 4.432020439329526
upperneck 18.190961179115458 7.220466480419661 7.275698905302198
head 7.64043377662045 4.221255276351889 2.160041923369736
rclavicle 9.29536989763867E-16 -1.8387531551860753E-15
rhumerus 7.769380168680193 -22.487150465576565 -48.4148915667757
rradius 27.95435110881333
rwrist 21.191693188344303
rhand 0.8113420867950261 7.398898097046195
rfingers 7.125020000000029
rthumb 26.431980843234342 -19.65776270740448
lclavicle 1.4621492873867624E-15 -9.216842353767689E-16
lhumerus -10.536678971881715 3.858179837859035 51.41556285267153
lradius 35.65312973017235
lwrist -7.755679734618125
lhand -1.7445945283490243 23.316101202937535
lfingers 7.125019999999976
lthumb 23.527355643609873 50.48479437028279
rfemur 58.825941990025996 -81.81159948652986 -56.00042737003893
rtibia 40.21440843514591
rfoot -18.42066301617838 -17.96072572012946
rtoes 21.622689000610308
lfemur -44.74860451325711 8.225345669266098 -27.125350564966176
ltibia 44.05471635736071
lfoot -22.773073788397987 14.913070257982604
ltoes 10.881339029237068
64
root 0 0 0 45.01999245347434 -47.12564804742932 -18.509601551699035
lowerback -6.506828857094628 3.601661295319764 -0.48305495769720824
upperback -13.446263900103766 4.309398399310988 -0.07694373112256025
thorax -11.038269252610661 2.1114042844628784 0.6839621651699415
lowerneck -11.431292668406778 6.757368059803327 4.434946140758073
upperneck 18.19031203950736 7.226215758119636 7.280180164710147
head 7.639631917599814 4.2243530533101135 2.1613573933195767
rclavicle 9.246378270530197E-16 -1.8363135521329282E-15
rhumerus 7.847653341072963 -22.486254870642547 -48.41397717030193
rradius 27.93831971226389
rwrist 21.235109346230914
rhand 0.8408270873770025 7.36985695090953
rfingers 7.125020000000029
rthumb 26.459804868874826 -19.68216686172069
lclavicle 1.4461656901521843E-15 -9.264173114496172E-16
lhumerus -10.504754150130571 3.891483302905022 51.331626475860034
lradius 35.632235881919186
lwrist -7.807461852749409
lhand -1.7364852249518048 23.3250532764856
lfingers 7.125019999999976
lthumb 23.538513114020063 50.49375223731561
rfemur 59.004233751065485 -82.01402775055708 -56.19952070801661
rtibia 40.214075131631205
rfoot -18.43280926393079 -17.985284263520114
rtoes 21.64715925526221
lfemur -44.8180487034184 8.250694336342265 -27.13497442195254
ltibia 44.07366462204828
lfoot -22.802163699922172 14.94849346819819
ltoes 10.91525014507533
65
root 0 0 0 45.009291807696506 -47.11869200192895 -18.50622630006444
lowerback -6.502496355302632 3.601775818549532 -0.48252692995943447
upperback -13.441947987175807 4.309417445075722 -0.0774166997495036
thorax -11.036040176984919 2.111280158254421 0.6828765519448257
lowerneck -11.433866925661317 6.755648075162371 4.434330028400538
upperneck 18.191332250290035 7.224139759946651 7.277968117386964
head 7.640339057239098 4.223248086886051 2.1607133553617235
rclavicle 9.24977155562608E-16 -1.835863411870171E-15
rhumerus 7.838802462485441 -22.486247817295194 -48.41960968792077
rradius 27.94010447296197
rwrist 21.232173394157407
rhand 0.8341808095973366 7.3753184384966035
rfingers 7.125020000000029
rthumb 26.4537407644104 -19.677549828062027
lclavicle 1.4503081210484043E-15 -9.260240433760435E-16
lhumerus -10.512032611676087 3.8854795828367243 51.34996006278374
lradius 35.63546846756561
lwrist -7.798172073623693
lhand -1.7394776070532476 23.323172653903185
lfingers 7.125019999999976
lthumb 23.53528534499737 50.492197482498064
rfemur 58.95382991948294 -81.95252128429422 -56.13873076806427
rtibia 40.21364222341584
rfoot -18.42574412701709 -17.977500100793062
rtoes 21.6356129290517
lfemur -44.79380807160483 8.24134492518268 -27.13230304253642
ltibia 44.06697510293546
lfoot -22.78977577762154 14.93518133295881
ltoes 10.901735986029895
66
root 0 0 0 45.0017369828775 -47.111235287947636 -18.502967887517816
lowerback -6.500466531450296 3.601189569959645 -0.48274334848279454
upperback -13.439904529401929 4.308634087621755 -0.07713912363684639
thorax -11.034926153501203 2.1109235102166997 0.6831039248335684
lowerneck -11.434429385303424 6.754057609896442 4.433316600700704
upperneck 18.192250887895245 7.222208694334572 7.2767862875404585
head 7.640786022470481 4.22221097635482 2.1603417678599857
rclavicle 9.255858891673276E-16 -1.83615399056221E-15
rhumerus 7.8280629865620135 -22.486227456596268 -48.42173728090202
rradius 27.943038340177363
rwrist 21.225547817481214
rhand 0.8287135484939387 7.380571241514206
rfingers 7.125020000000029
rthumb 26.448378404834866 -19.673276681377445
lclavicle 1.4516869367634965E-15 -9.250478848927578E-16
lhumerus -10.518560704705772 3.881833525055118 51.361689917383636
lradius 35.63650212603601
lwrist -7.792188367738781
lhand -1.7431581775551361 23.322431108226372
lfingers 7.125019999999976
lthumb 23.53117912692493 50.49190423118665
rfemur 58.92179327566504 -81.91715512078821 -56.103750183189476
rtibia 40.213692713009976
rfoot -18.42426477640408 -17.97323130362617
rtoes 21.631719227102476
lfemur -44.777916621902776 8.235641702716727 -27.12956649936827
ltibia 44.06244850379665
lfoot -22.784510017218985 14.927419934912205
ltoes 10.8947897102994
67
root 0 0 0 44.9949982822036 -47.10925576389394 -18.500520007375492
lowerback -6.497308510540092 3.6009493190540263 -0.48303558424863
upperback -13.43829176974633 4.308116641988293 -0.0774695651080104
thorax -11.034859531907813 2.1106942798284916 0.6828096930427643
lowerneck -11.435290130367104 6.753957630348773 4.433130036576098
upperneck 18.19088216160729 7.222095626749548 7.276429399661584
head 7.640405584428997 4.222144868575519 2.1602624254983103
rclavicle 9.250181437007172E-16 -1.8358606511242346E-15
rhumerus 7.819548136441854 -22.48462915964994 -48.43099508672509
rradius 27.94404599430732
rwrist 21.221194871534788
rhand 0.8219008909597623 7.38631210095494
rfingers 7.125020000000029
rthumb 26.441776982285823 -19.668572673944706
lclavicle 1.4530027392484438E-15 -9.233691590018671E-16
lhumerus -10.527953985794522 3.8766091404392093 51.378186350142656
lradius 35.63737608289603
lwrist -7.783303330469417
lhand -1.7485286699143998 23.321627047033385
lfingers 7.125019999999976
lthumb 23.525216176712583 50.491739496033134
rfemur 58.864732821946234 -81.8545416391251 -56.04252953216226
rtibia 40.214140077168096
rfoot -18.422311972459912 -17.96584305636602
rtoes 21.62668739450562
lfemur -44.75804807586254 8.228588226613365 -27.12677056576953
ltibia 44.0572614711359
lfoot -22.776950890471642 14.917712652077194
ltoes 10.885631860773127
68
root 0 0 0 45.02408728902536 -47.12884744292917 -18.51126824770592
lowerback -6.508340134992613 3.602134848417907 -0.4827535297041578
upperback -13.446753227298872 4.31007058257123 -0.07716076807357197
thorax -11.038068658503992 2.111683601333116 0.6836009497926077
lowerneck -11.431365669108159 6.7577841553494835 4.435460350305375
upperneck 18.191132522170772 7.226656251564579 7.280240868272012
head 7.63997005282922 4.2246073321086985 2.161363467241136
rclavicle 9.206417591115399E-16 -1.833750705764651E-15
rhumerus 7.890863618431672 -22.483881966415876 -48.42900437979482
rradius 27.92944196935916
rwrist 21.26054026531024
rhand 0.8493966348758146 7.359411767427537
rfingers 7.125020000000029
rthumb 26.46772553366626 -19.691165522831504
lclavicle 1.4377696713715084E-15 -9.278610126220331E-16
lhumerus -10.497350107503795 3.9081634672843326 51.298192969735986
lradius 35.61772750785359
lwrist -7.8323846728428705
lhand -1.740479331339957 23.330102364308992
lfingers 7.125019999999976
lthumb 23.53614224942885 50.50015786025338
rfemur 59.033076084213874 -82.04600099809693 -56.23089902818489
rtibia 40.21389625800974
rfoot -18.434026594589454 -17.989108731639345
rtoes 21.65019520967683
lfemur -44.82408298913322 8.252713990116042 -27.1359629958628
ltibia 44.075328878060624
lfoot -22.804632615070137 14.95145638328976
ltoes 10.91791884988406
